:SAMPLES-PER-SECOND 30
:FULLY-SPECIFIED
:DEGREES
943
root  8.10386 38.6571 4.47488 -114.296 -85.3239 106.55
RightUpLeg  -18.354 0.766957 -7.11159
RightLeg  11.7918 3.95837 0.196965
RightFoot  -2.18069 -0.618352 7.52638
RightToes  -9.31324e-010 0 -3.6325e-017
Spine  6.60717 -0.246959 -3.68842
Spine1  7.69792 -0.138817 -1.74407
HEad  -14.1181 9.04246 -1.89821
LeftShoulder1  -0.301772 4.29724 -31.8856
LeftArm  11.1235 -4.45414 -42.6176
LeftForeArm  19.3332 -27.6116 -4.90699
LeftHand  -0.0249031 5.52933 2.29422
RightShoulder  -0.732589 -5.53291 29.4375
RightArm  21.4865 -3.03689 45.8471
RightForeArm  9.63049 14.5626 6.71952
RightHand  -0.224757 7.2345 -2.42129
LeftUpLeg  9.06878 4.91448 -8.59607
LeftLeg  14.9537 0.0964353 0.00663509
LeftFoot  -15.8823 0.44074 8.68138
LeftToes  8.61288e-010 -5.99147e-011 2.1039e-011
944
root  6.70744 38.4962 4.45291 -107.992 -85.1822 100.42
RightUpLeg  -17.6997 -6.08859 -4.85482
RightLeg  1.30312 10.4004 -0.76705
RightFoot  -3.48708 -0.626921 8.81757
RightToes  -9.31324e-010 0 -3.6325e-017
Spine  5.97311 -0.159026 -3.16459
Spine1  8.18599 0.107315 -1.76993
HEad  -13.485 6.6978 -2.28397
LeftShoulder1  -0.265301 4.21037 -31.4201
LeftArm  11.1069 -6.65981 -43.5596
LeftForeArm  19.5882 -28.0524 -4.99354
LeftHand  -0.0193881 5.77246 2.80132
RightShoulder  -0.699254 -5.44569 29.3194
RightArm  19.002 -2.6074 46.3287
RightForeArm  11.409 12.316 7.26901
RightHand  -0.255704 7.18175 -2.70906
LeftUpLeg  11.7874 5.10634 -8.60172
LeftLeg  13.9388 -0.580191 -0.185347
LeftFoot  -17.4253 0.559959 8.56507
LeftToes  8.61288e-010 -5.99147e-011 2.1039e-011
945
root  5.25226 38.2267 4.38227 -108.135 -85.2289 100.39
RightUpLeg  -17.6834 -6.18779 -4.26018
RightLeg  -2.87198 7.89523 -0.402778
RightFoot  -4.89035 -0.579126 9.62585
RightToes  -9.31324e-010 0 -3.6325e-017
Spine  5.95991 0.0847709 -2.47526
Spine1  8.30377 0.390518 -1.64328
HEad  -13.752 6.49118 -3.01325
LeftShoulder1  -0.285719 4.25985 -31.6584
LeftArm  11.2955 -8.31498 -43.9185
LeftForeArm  19.2979 -28.1274 -5.02667
LeftHand  -0.0208264 5.58783 3.28789
RightShoulder  -0.66549 -5.35698 29.1994
RightArm  16.9362 -2.19102 46.7338
RightForeArm  14.6656 10.3382 7.49852
RightHand  -0.105971 6.68978 -1.36159
LeftUpLeg  14.5459 5.60512 -8.0841
LeftLeg  13.9697 -1.33457 -0.314154
LeftFoot  -19.6068 0.692063 7.92536
LeftToes  8.61288e-010 -5.99147e-011 2.1039e-011
946
root  3.74737 37.9187 4.30212 -110.571 -85.1646 102.834
RightUpLeg  -19.2582 -5.47395 -3.44751
RightLeg  1.32996 3.34084 0.0427202
RightFoot  -4.82178 -0.463617 7.43685
RightToes  -9.31324e-010 0 -3.6325e-017
Spine  5.96925 0.198215 -1.38996
Spine1  8.33876 0.708869 -2.36634
HEad  -14.0051 5.59383 -3.45061
LeftShoulder1  -0.244033 4.15448 -31.3781
LeftArm  10.7251 -8.74946 -44.4182
LeftForeArm  20.0571 -28.0508 -4.96744
LeftHand  -0.0274466 5.32523 2.93979
RightShoulder  -0.694817 -5.41987 29.5697
RightArm  16.2676 -1.31579 46.8996
RightForeArm  17.1596 8.55989 7.84226
RightHand  -0.0369093 6.09522 -0.71333
LeftUpLeg  16.8334 6.07781 -7.65481
LeftLeg  14.6744 -1.80438 -0.400188
LeftFoot  -21.4164 0.754147 7.1019
LeftToes  8.61288e-010 -5.99147e-011 2.1039e-011
947
root  2.11068 37.6368 4.19094 -108.664 -85.6329 100.987
RightUpLeg  -20.3776 -5.37897 -2.3744
RightLeg  7.75776 0.0741211 0.293148
RightFoot  -3.48061 -0.38122 5.65147
RightToes  -9.31324e-010 0 -3.6325e-017
Spine  5.37828 -0.0996845 -0.500539
Spine1  8.79397 0.330611 -2.07855
HEad  -14.8081 6.13935 -4.38177
LeftShoulder1  -0.235199 4.13144 -31.3422
LeftArm  10.4168 -7.88898 -44.6061
LeftForeArm  19.7155 -27.6819 -4.90256
LeftHand  -0.0268486 5.32132 3.71069
RightShoulder  -0.671833 -5.35866 29.5153
RightArm  15.9715 -1.00543 47.1039
RightForeArm  18.4545 7.74827 7.92239
RightHand  -0.060328 5.83013 -0.947148
LeftUpLeg  18.8499 6.33992 -6.53412
LeftLeg  16.3012 -2.91453 -0.65601
LeftFoot  -22.7008 0.687992 5.51485
LeftToes  8.61288e-010 -5.99147e-011 2.1039e-011
948
root  0.443902 37.6075 4.06852 -94.3958 -87.0655 86.9982
RightUpLeg  -21.2885 -5.79642 -0.526652
RightLeg  12.9516 -0.0280392 0.230905
RightFoot  1.43145 0.0611264 -0.60755
RightToes  -9.31324e-010 0 -3.6325e-017
Spine  4.54841 -0.614268 1.07729
Spine1  9.22432 -0.549332 -0.436292
HEad  -14.5408 6.14669 -5.29332
LeftShoulder1  -0.293749 4.27513 -31.937
LeftArm  12.0884 -6.4715 -44.1595
LeftForeArm  18.3611 -26.4994 -4.70592
LeftHand  -0.0449045 4.63615 3.51993
RightShoulder  -0.714815 -5.47766 29.504
RightArm  15.5475 -1.98905 46.5535
RightForeArm  19.3101 8.26651 7.59134
RightHand  -9.00478e-005 6.00808 -0.326993
LeftUpLeg  20.7954 5.40829 -4.46665
LeftLeg  17.3118 -4.23001 -1.08496
LeftFoot  -22.1233 0.392541 2.78312
LeftToes  8.61288e-010 -5.99147e-011 2.1039e-011
949
root  -1.32023 37.4746 3.9469 -54.9137 -88.7749 47.5503
RightUpLeg  -21.947 -5.45431 1.12979
RightLeg  18.3722 0.734594 0.161905
RightFoot  6.01975 0.27281 -1.57239
RightToes  -9.31324e-010 0 -3.6325e-017
Spine  4.19234 -0.975964 3.91767
Spine1  8.86073 -0.7164 -0.508749
HEad  -14.2585 5.97422 -6.14804
LeftShoulder1  -0.364965 4.44687 -32.5771
LeftArm  15.4247 -4.83563 -43.8111
LeftForeArm  16.506 -24.5256 -4.39661
LeftHand  -0.0298001 5.20865 3.18573
RightShoulder  -0.854058 -5.8038 30.5247
RightArm  16.1496 -3.10766 44.7673
RightForeArm  17.6214 9.3554 7.46922
RightHand  -0.0401974 6.39689 -0.725694
LeftUpLeg  21.4526 5.18156 -1.45284
LeftLeg  21.8048 -6.56188 -2.58595
LeftFoot  -21.1265 0.0281389 -1.13927
LeftToes  8.61288e-010 -5.99147e-011 2.1039e-011
950
root  -2.99702 37.336 3.83295 -147.979 -89.8482 140.852
RightUpLeg  -22.9234 -4.54735 3.03435
RightLeg  24.6916 1.15983 0.335741
RightFoot  3.61801 0.514641 -3.73397
RightToes  -9.31324e-010 0 -3.6325e-017
Spine  4.1061 -0.874739 7.45782
Spine1  8.27561 -0.0300131 -1.46915
HEad  -13.7123 5.74755 -6.30873
LeftShoulder1  -0.41583 4.57968 -32.511
LeftArm  17.1519 -2.31126 -44.0669
LeftForeArm  16.48 -22.1362 -4.37239
LeftHand  -0.027963 5.40086 2.18603
RightShoulder  -0.847989 -5.77866 30.6402
RightArm  15.4778 -4.21719 44.1865
RightForeArm  17.2696 9.32978 7.2087
RightHand  0.0195708 5.38105 -0.105418
LeftUpLeg  19.4838 6.55994 2.06448
LeftLeg  30.264 -9.11074 -5.41131
LeftFoot  -17.0565 -0.190444 -6.4385
LeftToes  8.61288e-010 -5.99147e-011 2.1039e-011
951
root  -4.47984 37.2793 3.66274 88.0281 -88.1506 -94.9057
RightUpLeg  -22.5862 -5.05769 4.78651
RightLeg  28.4248 0.56569 0.0896713
RightFoot  0.269275 0.478944 -4.67117
RightToes  -9.31324e-010 0 -3.6325e-017
Spine  4.41059 -1.19141 9.19069
Spine1  7.77662 -0.251721 -0.245204
HEad  -13.528 5.41175 -6.52209
LeftShoulder1  -0.41561 4.5783 -32.5398
LeftArm  15.4937 0.505992 -44.0928
LeftForeArm  19.8934 -19.8053 -5.37172
LeftHand  -0.0290867 5.76664 0.381031
RightShoulder  -0.762731 -5.57465 30.1736
RightArm  14.5572 -4.42814 44.3838
RightForeArm  16.2897 8.23097 7.21156
RightHand  -0.0431017 5.61809 -0.777038
LeftUpLeg  14.4262 5.98366 5.09634
LeftLeg  41.6503 -9.45241 -8.44196
LeftFoot  -7.36274 0.448922 -11.4959
LeftToes  8.61288e-010 -5.99147e-011 2.1039e-011
952
root  -5.82548 37.2561 3.50423 63.2233 -86.4068 -69.6418
RightUpLeg  -21.9346 -5.64751 6.41392
RightLeg  30.8679 -0.172603 -0.365991
RightFoot  -2.87397 0.353019 -5.02197
RightToes  -9.31324e-010 0 -3.6325e-017
Spine  4.4268 -1.46347 11.034
Spine1  7.81307 -0.382149 0.713243
HEad  -14.2746 4.5494 -5.82965
LeftShoulder1  -0.407734 4.55631 -32.6008
LeftArm  12.5249 1.81154 -44.1308
LeftForeArm  24.6669 -16.9456 -7.03935
LeftHand  -0.0363396 6.25808 -0.289288
RightShoulder  -0.797232 -5.66062 30.3175
RightArm  14.3272 -3.39109 44.2619
RightForeArm  17.461 7.64825 7.22788
RightHand  -0.0202867 5.54308 -0.535522
LeftUpLeg  7.15428 3.46935 6.6157
LeftLeg  52.9573 -6.64536 -8.884
LeftFoot  6.03132 1.82428 -12.4719
LeftToes  8.61288e-010 -5.99147e-011 2.1039e-011
953
root  -7.10808 37.3189 3.3778 62.7885 -85.2163 -69.4421
RightUpLeg  -20.0465 -6.05181 7.56332
RightLeg  32.1769 -0.561632 -0.64384
RightFoot  -5.51264 0.228847 -5.21493
RightToes  -9.31324e-010 0 -3.6325e-017
Spine  4.88212 -1.28933 12.8688
Spine1  8.29385 0.154732 1.03207
HEad  -14.7419 2.82591 -5.21006
LeftShoulder1  -0.403286 4.53299 -33.0424
LeftArm  8.91836 2.14855 -43.7771
LeftForeArm  30.8895 -13.7292 -8.78368
LeftHand  -0.0417704 6.01849 -1.42822
RightShoulder  -0.811275 -5.69648 30.3604
RightArm  13.7793 -2.28086 44.2025
RightForeArm  17.1805 7.2721 7.104
RightHand  0.0174499 5.78056 -0.14233
LeftUpLeg  1.09245 1.78629 7.61868
LeftLeg  61.2207 -4.25244 -7.79895
LeftFoot  13.3934 2.1065 -9.81946
LeftToes  8.61288e-010 -5.99147e-011 2.1039e-011
954
root  -8.46908 37.6161 3.25334 69.4898 -85.6161 -76.6963
RightUpLeg  -16.6526 -5.72408 7.4185
RightLeg  31.5937 -0.303041 -0.463199
RightFoot  -7.57918 0.116746 -5.08572
RightToes  -9.31324e-010 0 -3.6325e-017
Spine  5.69098 -0.677313 13.8126
Spine1  8.06611 1.257 -0.0890238
HEad  -14.9155 1.52972 -4.26896
LeftShoulder1  -0.368495 4.44804 -32.8853
LeftArm  5.62665 3.82989 -43.4945
LeftForeArm  35.2127 -12.016 -9.27822
LeftHand  -0.0533265 6.25881 -1.87405
RightShoulder  -0.78619 -5.63577 30.2268
RightArm  13.8499 -1.15522 44.4881
RightForeArm  16.5421 7.20918 7.17836
RightHand  -0.0508894 6.01425 -0.853746
LeftUpLeg  -3.64178 1.41303 7.55203
LeftLeg  66.1925 -2.72747 -6.09596
LeftFoot  8.65283 1.18554 -7.05311
LeftToes  8.61288e-010 -5.99147e-011 2.1039e-011
955
root  -9.76999 37.9223 3.1714 74.0437 -86.0154 -81.2615
RightUpLeg  -13.6882 -5.86194 6.99237
RightLeg  30.4645 0.0620833 -0.224278
RightFoot  -9.35395 0.0175807 -4.66366
RightToes  -9.31324e-010 0 -3.6325e-017
Spine  5.73069 -0.290403 14.5063
Spine1  8.03746 1.9362 -1.12656
HEad  -15.1426 0.721406 -3.71048
LeftShoulder1  -0.342856 4.38474 -32.7821
LeftArm  4.08447 5.86089 -42.9011
LeftForeArm  35.6888 -11.5176 -9.24425
LeftHand  -0.0847465 6.9182 -3.28208
RightShoulder  -0.743245 -5.54297 29.7752
RightArm  14.1229 -0.0191123 45.1482
RightForeArm  16.4005 8.10415 7.2201
RightHand  -0.115852 5.66012 -1.5341
LeftUpLeg  -8.76453 0.717729 6.97929
LeftLeg  67.9371 -1.77043 -4.11785
LeftFoot  6.87956 0.773737 -5.09529
LeftToes  8.61288e-010 -5.99147e-011 2.1039e-011
956
root  -11.1047 38.2631 3.11334 93.2765 -86.8357 -100.404
RightUpLeg  -10.4703 -5.84109 6.08779
RightLeg  28.6536 1.17203 0.445351
RightFoot  -10.7407 -0.0493227 -4.46094
RightToes  -9.31324e-010 0 -3.6325e-017
Spine  5.67569 0.318821 15.0227
Spine1  7.83656 2.82377 -2.59668
HEad  -14.9571 0.242921 -3.74854
LeftShoulder1  -0.366045 4.43974 -32.9725
LeftArm  4.0786 8.14689 -41.6653
LeftForeArm  34.0184 -11.5592 -9.22488
LeftHand  -0.069499 6.75423 -2.51663
RightShoulder  -0.68815 -5.4274 29.0873
RightArm  14.9525 0.846734 45.8401
RightForeArm  16.3864 10.0838 6.93498
RightHand  -0.0715486 5.54465 -1.07736
LeftUpLeg  -12.8509 0.6654 5.91859
LeftLeg  66.131 -1.50275 -3.04121
LeftFoot  4.4953 0.491318 -3.70755
LeftToes  8.61288e-010 -5.99147e-011 2.1039e-011
957
root  -12.3978 38.5436 3.06768 117.739 -86.7035 -124.829
RightUpLeg  -7.23778 -6.1762 5.30779
RightLeg  26.7064 2.72191 1.26982
RightFoot  -11.9037 -0.102504 -4.46308
RightToes  -9.31324e-010 0 -3.6325e-017
Spine  6.05534 0.823055 15.9417
Spine1  7.01305 3.65128 -4.29458
HEad  -14.5706 0.137434 -4.17023
LeftShoulder1  -0.362931 4.43226 -32.9536
LeftArm  4.0118 10.5548 -40.5601
LeftForeArm  33.1977 -11.9079 -8.99824
LeftHand  -0.0915599 7.44148 -2.68025
RightShoulder  -0.702509 -5.47376 28.9816
RightArm  18.172 1.12489 45.6284
RightForeArm  12.4957 14.1294 6.29481
RightHand  -0.153851 5.89977 -1.9093
LeftUpLeg  -16.232 0.507686 5.20506
LeftLeg  61.7342 -2.00954 -3.44851
LeftFoot  1.5903 0.236035 -2.18553
LeftToes  8.61288e-010 -5.99147e-011 2.1039e-011
